<?xml version="1.0" encoding="utf-8"?>
<!-- Generator: Adobe Illustrator 15.0.0, SVG Export Plug-In . SVG Version: 6.00 Build 0)  -->
<!DOCTYPE svg PUBLIC "-//W3C//DTD SVG 1.1//EN" "http://www.w3.org/Graphics/SVG/1.1/DTD/svg11.dtd">
<svg version="1.1" id="Layer_1" xmlns="http://www.w3.org/2000/svg" xmlns:xlink="http://www.w3.org/1999/xlink" x="0px" y="0px"
	 width="612px" height="792px" viewBox="0 0 612 792" enable-background="new 0 0 612 792" xml:space="preserve">
<g>
	<path d="M32.02,394.281v10.76h-8.733v-10.76H3.304v-6.148l13.694-31.021l7.616,2.865l-12.018,27.458h10.76l0.908-11.808h7.755
		v11.808h5.66v6.847H32.02z"/>
	<path d="M74.954,361.862c4.494,3.4,6.742,9.666,6.742,18.794c0,8.943-2.213,15.244-6.638,18.9
		c-4.426,3.657-10.038,5.484-16.838,5.484H45.084v-48.279h11.878C64.461,356.762,70.458,358.463,74.954,361.862z M54.307,398.124
		h4.542c4.098,0,7.312-1.269,9.642-3.808c2.329-2.539,3.493-7.092,3.493-13.66c0-4.564-0.594-8.093-1.782-10.585
		c-1.188-2.491-2.749-4.18-4.681-5.065c-1.933-0.884-4.251-1.328-6.952-1.328h-4.262V398.124z"/>
	<linearGradient id="SVGID_1_" gradientUnits="userSpaceOnUse" x1="107.8262" y1="380.9014" x2="143.4595" y2="380.9014">
		<stop  offset="0" style="stop-color:#9F0028"/>
		<stop  offset="1" style="stop-color:#DF1800"/>
	</linearGradient>
	<path fill="url(#SVGID_1_)" d="M131.512,405.041l-16.559-39.057c0.419,3.448,0.733,6.568,0.943,9.362
		c0.21,2.795,0.314,6.126,0.314,9.991v19.703h-8.384v-48.279h11.668l16.838,39.126c-0.279-1.862-0.559-4.32-0.838-7.371
		c-0.279-3.05-0.419-6.089-0.419-9.118v-22.638h8.384v48.279H131.512z"/>
	<linearGradient id="SVGID_2_" gradientUnits="userSpaceOnUse" x1="154.0786" y1="381.4253" x2="189.9912" y2="381.4253">
		<stop  offset="0" style="stop-color:#9F0028"/>
		<stop  offset="1" style="stop-color:#DF1800"/>
	</linearGradient>
	<path fill="url(#SVGID_2_)" d="M187.93,397.949c-1.375,2.539-3.424,4.53-6.148,5.974c-2.725,1.443-5.998,2.166-9.816,2.166
		c-5.776,0-10.201-1.525-13.275-4.576c-3.074-3.05-4.611-7.138-4.611-12.262v-32.489h9.223v32c0,3.4,0.71,5.939,2.131,7.616
		c1.42,1.676,3.598,2.515,6.533,2.515c2.98,0,5.181-0.839,6.603-2.515c1.42-1.677,2.131-4.215,2.131-7.616v-32h9.292v32.489
		C189.991,392.512,189.303,395.411,187.93,397.949z"/>
	<linearGradient id="SVGID_3_" gradientUnits="userSpaceOnUse" x1="197.9556" y1="380.9014" x2="233.728" y2="380.9014">
		<stop  offset="0" style="stop-color:#9F0028"/>
		<stop  offset="1" style="stop-color:#DF1800"/>
	</linearGradient>
	<path fill="url(#SVGID_3_)" d="M226.776,356.972c2.212,0.838,4.343,2.12,6.393,3.843l-4.751,5.52
		c-2.749-2.329-5.729-3.494-8.943-3.494c-3.587,0-6.452,1.444-8.594,4.332c-2.143,2.889-3.214,7.43-3.214,13.625
		c0,6.103,1.071,10.609,3.214,13.52c2.142,2.911,5.053,4.366,8.733,4.366c1.862,0,3.516-0.349,4.96-1.048
		c1.443-0.699,3.05-1.7,4.821-3.004l4.332,5.589c-1.631,1.677-3.692,3.074-6.183,4.192c-2.493,1.118-5.275,1.677-8.35,1.677
		c-4.192,0-7.895-0.978-11.109-2.935c-3.214-1.956-5.706-4.832-7.476-8.628c-1.771-3.796-2.655-8.372-2.655-13.729
		c0-5.263,0.919-9.782,2.76-13.555c1.839-3.773,4.343-6.638,7.511-8.594c3.167-1.957,6.73-2.935,10.69-2.935
		C221.943,355.714,224.563,356.133,226.776,356.972z"/>
	<linearGradient id="SVGID_4_" gradientUnits="userSpaceOnUse" x1="240.2954" y1="380.9014" x2="268.8716" y2="380.9014">
		<stop  offset="0" style="stop-color:#9F0028"/>
		<stop  offset="1" style="stop-color:#DF1800"/>
	</linearGradient>
	<path fill="url(#SVGID_4_)" d="M268.872,397.495l-1.048,7.546h-27.528v-48.279h9.223v40.733H268.872z"/>
	<linearGradient id="SVGID_5_" gradientUnits="userSpaceOnUse" x1="275.6484" y1="380.9014" x2="303.9453" y2="380.9014">
		<stop  offset="0" style="stop-color:#9F0028"/>
		<stop  offset="1" style="stop-color:#DF1800"/>
	</linearGradient>
	<path fill="url(#SVGID_5_)" d="M284.871,363.609v13.485h15.511v6.847h-15.511v14.183h19.074v6.917h-28.297v-48.279h28.018
		l-0.979,6.847H284.871z"/>
	<linearGradient id="SVGID_6_" gradientUnits="userSpaceOnUse" x1="310.0234" y1="380.9014" x2="352.2939" y2="380.9014">
		<stop  offset="0" style="stop-color:#9F0028"/>
		<stop  offset="1" style="stop-color:#DF1800"/>
	</linearGradient>
	<path fill="url(#SVGID_6_)" d="M342.442,358.648c3.167,1.956,5.601,4.821,7.302,8.594c1.7,3.773,2.55,8.314,2.55,13.625
		c0,5.264-0.862,9.781-2.585,13.554c-1.724,3.773-4.169,6.662-7.336,8.664c-3.168,2.002-6.895,3.004-11.179,3.004
		c-4.332,0-8.082-0.978-11.249-2.935c-3.168-1.956-5.613-4.82-7.336-8.594c-1.725-3.772-2.586-8.314-2.586-13.624
		c0-5.216,0.861-9.723,2.586-13.52c1.723-3.796,4.18-6.695,7.371-8.699c3.189-2.002,6.928-3.004,11.214-3.004
		C335.525,355.714,339.274,356.692,342.442,358.648z M322.67,367.137c-1.956,2.912-2.935,7.511-2.935,13.799
		c0,12.064,3.819,18.096,11.459,18.096c3.726,0,6.556-1.443,8.488-4.332c1.933-2.888,2.9-7.499,2.9-13.834
		c0-6.289-0.968-10.875-2.9-13.764c-1.933-2.888-4.763-4.332-8.488-4.332C327.467,362.771,324.626,364.227,322.67,367.137z"/>
	<linearGradient id="SVGID_7_" gradientUnits="userSpaceOnUse" x1="357.8135" y1="380.9014" x2="406.0225" y2="380.9014">
		<stop  offset="0" style="stop-color:#9F0028"/>
		<stop  offset="1" style="stop-color:#DF1800"/>
	</linearGradient>
	<path fill="url(#SVGID_7_)" d="M397.01,405.041l-1.258-20.192c-0.419-7.033-0.629-12.599-0.629-16.699v-3.004l-8.803,34.655h-8.734
		l-9.362-34.725c0.14,2.236,0.21,4.496,0.21,6.777c0,3.541-0.164,7.965-0.489,13.275l-1.188,19.913h-8.943l3.843-48.279h11.878
		l8.594,33.816l8.104-33.816h12.018l3.772,48.279H397.01z"/>
	<linearGradient id="SVGID_8_" gradientUnits="userSpaceOnUse" x1="415.7344" y1="380.9014" x2="444.0312" y2="380.9014">
		<stop  offset="0" style="stop-color:#9F0028"/>
		<stop  offset="1" style="stop-color:#DF1800"/>
	</linearGradient>
	<path fill="url(#SVGID_8_)" d="M424.957,363.609v13.485h15.511v6.847h-15.511v14.183h19.074v6.917h-28.297v-48.279h28.018
		l-0.979,6.847H424.957z"/>
	<linearGradient id="SVGID_9_" gradientUnits="userSpaceOnUse" x1="470.2314" y1="380.9014" x2="506.8428" y2="380.9014">
		<stop  offset="0" style="stop-color:#9F0028"/>
		<stop  offset="1" style="stop-color:#DF1800"/>
	</linearGradient>
	<path fill="url(#SVGID_9_)" d="M500.101,361.862c4.494,3.4,6.742,9.666,6.742,18.794c0,8.943-2.213,15.244-6.638,18.9
		c-4.426,3.657-10.038,5.484-16.838,5.484h-13.136v-48.279h11.878C489.608,356.762,495.604,358.463,500.101,361.862z
		 M479.454,398.124h4.542c4.098,0,7.312-1.269,9.642-3.808c2.328-2.539,3.493-7.092,3.493-13.66c0-4.564-0.594-8.093-1.781-10.585
		c-1.188-2.491-2.749-4.18-4.682-5.065c-1.934-0.884-4.251-1.328-6.952-1.328h-4.262V398.124z"/>
	<linearGradient id="SVGID_10_" gradientUnits="userSpaceOnUse" x1="512.8506" y1="380.9014" x2="548.624" y2="380.9014">
		<stop  offset="0" style="stop-color:#9F0028"/>
		<stop  offset="1" style="stop-color:#DF1800"/>
	</linearGradient>
	<path fill="url(#SVGID_10_)" d="M541.672,356.972c2.212,0.838,4.343,2.12,6.393,3.843l-4.751,5.52
		c-2.749-2.329-5.729-3.494-8.943-3.494c-3.587,0-6.451,1.444-8.594,4.332c-2.143,2.889-3.214,7.43-3.214,13.625
		c0,6.103,1.071,10.609,3.214,13.52c2.143,2.911,5.054,4.366,8.733,4.366c1.863,0,3.517-0.349,4.961-1.048
		c1.443-0.699,3.051-1.7,4.821-3.004l4.332,5.589c-1.631,1.677-3.692,3.074-6.184,4.192c-2.492,1.118-5.275,1.677-8.35,1.677
		c-4.191,0-7.895-0.978-11.108-2.935c-3.215-1.956-5.707-4.832-7.477-8.628c-1.771-3.796-2.655-8.372-2.655-13.729
		c0-5.263,0.92-9.782,2.76-13.555s4.343-6.638,7.512-8.594c3.167-1.957,6.729-2.935,10.689-2.935
		C536.839,355.714,539.459,356.133,541.672,356.972z"/>
	<linearGradient id="SVGID_11_" gradientUnits="userSpaceOnUse" x1="555.1904" y1="380.9014" x2="564.4834" y2="380.9014">
		<stop  offset="0" style="stop-color:#9F0028"/>
		<stop  offset="1" style="stop-color:#DF1800"/>
	</linearGradient>
	<path fill="url(#SVGID_11_)" d="M555.19,405.041v-48.279h9.293v48.279H555.19z"/>
	<linearGradient id="SVGID_12_" gradientUnits="userSpaceOnUse" x1="573.1465" y1="380.9014" x2="608.9199" y2="380.9014">
		<stop  offset="0" style="stop-color:#9F0028"/>
		<stop  offset="1" style="stop-color:#DF1800"/>
	</linearGradient>
	<path fill="url(#SVGID_12_)" d="M601.968,356.972c2.212,0.838,4.343,2.12,6.393,3.843l-4.751,5.52
		c-2.749-2.329-5.729-3.494-8.943-3.494c-3.587,0-6.451,1.444-8.594,4.332c-2.143,2.889-3.214,7.43-3.214,13.625
		c0,6.103,1.071,10.609,3.214,13.52c2.143,2.911,5.054,4.366,8.733,4.366c1.863,0,3.517-0.349,4.961-1.048
		c1.443-0.699,3.051-1.7,4.821-3.004l4.332,5.589c-1.631,1.677-3.692,3.074-6.184,4.192c-2.492,1.118-5.275,1.677-8.35,1.677
		c-4.191,0-7.895-0.978-11.108-2.935c-3.215-1.956-5.707-4.832-7.477-8.628c-1.771-3.796-2.655-8.372-2.655-13.729
		c0-5.263,0.92-9.782,2.76-13.555s4.343-6.638,7.512-8.594c3.167-1.957,6.729-2.935,10.689-2.935
		C597.135,355.714,599.755,356.133,601.968,356.972z"/>
</g>
</svg>
